<?xml version="1.0" encoding="utf-8"?>
<!-- Generator: Adobe Illustrator 26.1.0, SVG Export Plug-In . SVG Version: 6.00 Build 0)  -->
<svg version="1.1" id="Layer_1" xmlns="http://www.w3.org/2000/svg" xmlns:xlink="http://www.w3.org/1999/xlink" x="0px" y="0px"
	 viewBox="0 0 2376 600" style="enable-background:new 0 0 2376 600;" xml:space="preserve">
<style type="text/css">
	.st0{fill:#FFFFFF;}
	.st1{fill:#DDDDFF;}
	.st2{fill:#C9CEFA;}
	.st3{fill:#B6BEF5;}
	.st4{fill:#A2AFF0;}
	.st5{fill:#8F9FEB;}
	.st6{fill:#7B90E7;}
	.st7{fill:#6781E2;}
	.st8{fill:#5471DD;}
	.st9{fill:#4062D8;}
	.st10{fill:#CB3C33;}
	.st11{fill:#D25048;}
	.st12{fill:#D8645E;}
	.st13{fill:#DE7873;}
	.st14{fill:#E58C88;}
	.st15{fill:#EBA19D;}
	.st16{fill:#F2B5B2;}
	.st17{fill:#F9C9C8;}
	.st18{fill:#FFDDDD;}
	.st19{fill:#DDFFDD;}
	.st20{fill:#C8F2C6;}
	.st21{fill:#B4E5AF;}
	.st22{fill:#9FD898;}
	.st23{fill:#8ACB81;}
	.st24{fill:#76BF6B;}
	.st25{fill:#61B254;}
	.st26{fill:#4DA53D;}
	.st27{fill:#389826;}
	.st28{fill:#9658B2;}
	.st29{fill:#A36DBC;}
	.st30{fill:#B082C5;}
	.st31{fill:#BD97CF;}
	.st32{fill:#CBABD9;}
	.st33{fill:#D8C0E2;}
	.st34{fill:#E5D5EC;}
	.st35{fill:#F2EAF5;}
	.st36{fill:none;stroke:#000000;stroke-miterlimit:2;}
	.st37{font-family:'ArialMT';}
	.st38{font-size:80px;}
</style>
<rect x="14.5" y="51.9" class="st0" width="496.3" height="496.3"/>
<rect x="594.8" y="51.9" class="st0" width="496.3" height="496.3"/>
<rect x="1169" y="51.9" class="st0" width="496.3" height="496.3"/>
<rect x="1862.3" y="51.9" class="st0" width="496.3" height="496.3"/>
<rect x="14.5" y="448.9" class="st1" width="99.3" height="99.3"/>
<rect x="14.5" y="349.6" class="st2" width="99.3" height="99.3"/>
<rect x="14.5" y="250.4" class="st3" width="99.3" height="99.3"/>
<rect x="14.5" y="151.1" class="st4" width="99.3" height="99.3"/>
<rect x="14.5" y="51.9" class="st5" width="99.3" height="99.3"/>
<rect x="113.8" y="448.9" class="st2" width="99.3" height="99.3"/>
<rect x="113.8" y="349.6" class="st3" width="99.3" height="99.3"/>
<rect x="113.8" y="250.4" class="st4" width="99.3" height="99.3"/>
<rect x="113.8" y="151.1" class="st5" width="99.3" height="99.3"/>
<rect x="113.8" y="51.9" class="st6" width="99.3" height="99.3"/>
<rect x="213" y="448.9" class="st3" width="99.3" height="99.3"/>
<rect x="213" y="349.6" class="st4" width="99.3" height="99.3"/>
<rect x="213" y="250.4" class="st5" width="99.3" height="99.3"/>
<rect x="213" y="151.1" class="st6" width="99.3" height="99.3"/>
<rect x="213" y="51.9" class="st7" width="99.3" height="99.3"/>
<rect x="312.3" y="448.9" class="st4" width="99.3" height="99.3"/>
<rect x="312.3" y="349.6" class="st5" width="99.3" height="99.3"/>
<rect x="312.3" y="250.4" class="st6" width="99.3" height="99.3"/>
<rect x="312.3" y="151.1" class="st7" width="99.3" height="99.3"/>
<rect x="312.3" y="51.9" class="st8" width="99.3" height="99.3"/>
<rect x="411.5" y="448.9" class="st5" width="99.3" height="99.3"/>
<rect x="411.5" y="349.6" class="st6" width="99.3" height="99.3"/>
<rect x="411.5" y="250.4" class="st7" width="99.3" height="99.3"/>
<rect x="411.5" y="151.1" class="st8" width="99.3" height="99.3"/>
<rect x="411.5" y="51.9" class="st9" width="99.3" height="99.3"/>
<rect x="594.8" y="448.9" class="st10" width="99.3" height="99.3"/>
<rect x="594.8" y="349.6" class="st11" width="99.3" height="99.3"/>
<rect x="594.8" y="250.4" class="st12" width="99.3" height="99.3"/>
<rect x="594.8" y="151.1" class="st13" width="99.3" height="99.3"/>
<rect x="594.8" y="51.9" class="st14" width="99.3" height="99.3"/>
<rect x="694" y="448.9" class="st11" width="99.3" height="99.3"/>
<rect x="694" y="349.6" class="st12" width="99.3" height="99.3"/>
<rect x="694" y="250.4" class="st13" width="99.3" height="99.3"/>
<rect x="694" y="151.1" class="st14" width="99.3" height="99.3"/>
<rect x="694" y="51.9" class="st15" width="99.3" height="99.3"/>
<rect x="793.3" y="448.9" class="st12" width="99.3" height="99.3"/>
<rect x="793.3" y="349.6" class="st13" width="99.3" height="99.3"/>
<rect x="793.3" y="250.4" class="st14" width="99.3" height="99.3"/>
<rect x="793.3" y="151.1" class="st15" width="99.3" height="99.3"/>
<rect x="793.3" y="51.9" class="st16" width="99.3" height="99.3"/>
<rect x="892.5" y="448.9" class="st13" width="99.3" height="99.3"/>
<rect x="892.5" y="349.6" class="st14" width="99.3" height="99.3"/>
<rect x="892.5" y="250.4" class="st15" width="99.3" height="99.3"/>
<rect x="892.5" y="151.1" class="st16" width="99.3" height="99.3"/>
<rect x="892.5" y="51.9" class="st17" width="99.3" height="99.3"/>
<rect x="991.8" y="448.9" class="st14" width="99.3" height="99.3"/>
<rect x="991.8" y="349.6" class="st15" width="99.3" height="99.3"/>
<rect x="991.8" y="250.4" class="st16" width="99.3" height="99.3"/>
<rect x="991.8" y="151.1" class="st17" width="99.3" height="99.3"/>
<rect x="991.8" y="51.9" class="st18" width="99.3" height="99.3"/>
<rect x="1169" y="448.9" class="st19" width="99.3" height="99.3"/>
<rect x="1169" y="349.6" class="st20" width="99.3" height="99.3"/>
<rect x="1169" y="250.4" class="st21" width="99.3" height="99.3"/>
<rect x="1169" y="151.1" class="st22" width="99.3" height="99.3"/>
<rect x="1169" y="51.9" class="st23" width="99.3" height="99.3"/>
<rect x="1268.3" y="448.9" class="st20" width="99.3" height="99.3"/>
<rect x="1268.3" y="349.6" class="st21" width="99.3" height="99.3"/>
<rect x="1268.3" y="250.4" class="st22" width="99.3" height="99.3"/>
<rect x="1268.3" y="151.1" class="st23" width="99.3" height="99.3"/>
<rect x="1268.3" y="51.9" class="st24" width="99.3" height="99.3"/>
<rect x="1367.5" y="448.9" class="st21" width="99.3" height="99.3"/>
<rect x="1367.5" y="349.6" class="st22" width="99.3" height="99.3"/>
<rect x="1367.5" y="250.4" class="st23" width="99.3" height="99.3"/>
<rect x="1367.5" y="151.1" class="st24" width="99.3" height="99.3"/>
<rect x="1367.5" y="51.9" class="st25" width="99.3" height="99.3"/>
<rect x="1466.8" y="448.9" class="st22" width="99.3" height="99.3"/>
<rect x="1466.8" y="349.6" class="st23" width="99.3" height="99.3"/>
<rect x="1466.8" y="250.4" class="st24" width="99.3" height="99.3"/>
<rect x="1466.8" y="151.1" class="st25" width="99.3" height="99.3"/>
<rect x="1466.8" y="51.9" class="st26" width="99.3" height="99.3"/>
<rect x="1566" y="448.9" class="st23" width="99.3" height="99.3"/>
<rect x="1566" y="349.6" class="st24" width="99.3" height="99.3"/>
<rect x="1566" y="250.4" class="st25" width="99.3" height="99.3"/>
<rect x="1566" y="151.1" class="st26" width="99.3" height="99.3"/>
<rect x="1566" y="51.9" class="st27" width="99.3" height="99.3"/>
<rect x="1862.3" y="448.9" class="st28" width="99.3" height="99.3"/>
<rect x="1862.3" y="349.6" class="st29" width="99.3" height="99.3"/>
<rect x="1862.3" y="250.4" class="st30" width="99.3" height="99.3"/>
<rect x="1862.3" y="151.1" class="st31" width="99.3" height="99.3"/>
<rect x="1862.3" y="51.9" class="st32" width="99.3" height="99.3"/>
<rect x="1961.5" y="448.9" class="st29" width="99.3" height="99.3"/>
<rect x="1961.5" y="349.6" class="st30" width="99.3" height="99.3"/>
<rect x="1961.5" y="250.4" class="st31" width="99.3" height="99.3"/>
<rect x="1961.5" y="151.1" class="st32" width="99.3" height="99.3"/>
<rect x="1961.5" y="51.9" class="st33" width="99.3" height="99.3"/>
<rect x="2060.8" y="448.9" class="st30" width="99.3" height="99.3"/>
<rect x="2060.8" y="349.6" class="st31" width="99.3" height="99.3"/>
<rect x="2060.8" y="250.4" class="st32" width="99.3" height="99.3"/>
<rect x="2060.8" y="151.1" class="st33" width="99.3" height="99.3"/>
<rect x="2060.8" y="51.9" class="st34" width="99.3" height="99.3"/>
<rect x="2160" y="448.9" class="st31" width="99.3" height="99.3"/>
<rect x="2160" y="349.6" class="st32" width="99.3" height="99.3"/>
<rect x="2160" y="250.4" class="st33" width="99.3" height="99.3"/>
<rect x="2160" y="151.1" class="st34" width="99.3" height="99.3"/>
<rect x="2160" y="51.9" class="st35" width="99.3" height="99.3"/>
<rect x="2259.3" y="448.9" class="st32" width="99.3" height="99.3"/>
<rect x="2259.3" y="349.6" class="st33" width="99.3" height="99.3"/>
<rect x="2259.3" y="250.4" class="st34" width="99.3" height="99.3"/>
<rect x="2259.3" y="151.1" class="st35" width="99.3" height="99.3"/>
<rect x="2259.3" y="51.9" class="st0" width="99.3" height="99.3"/>
<line class="st36" x1="14.1" y1="548.1" x2="511.2" y2="548.1"/>
<line class="st36" x1="14.5" y1="548.6" x2="14.5" y2="51.4"/>
<line class="st36" x1="14.1" y1="51.9" x2="511.2" y2="51.9"/>
<line class="st36" x1="510.8" y1="548.6" x2="510.8" y2="51.4"/>
<line class="st36" x1="594.3" y1="548.1" x2="1091.5" y2="548.1"/>
<line class="st36" x1="594.8" y1="548.6" x2="594.8" y2="51.4"/>
<line class="st36" x1="594.3" y1="51.9" x2="1091.5" y2="51.9"/>
<line class="st36" x1="1091" y1="548.6" x2="1091" y2="51.4"/>
<line class="st36" x1="1168.6" y1="548.1" x2="1665.7" y2="548.1"/>
<line class="st36" x1="1169" y1="548.6" x2="1169" y2="51.4"/>
<line class="st36" x1="1168.6" y1="51.9" x2="1665.7" y2="51.9"/>
<line class="st36" x1="1665.3" y1="548.6" x2="1665.3" y2="51.4"/>
<line class="st36" x1="1861.8" y1="548.1" x2="2359" y2="548.1"/>
<line class="st36" x1="1862.3" y1="548.6" x2="1862.3" y2="51.4"/>
<line class="st36" x1="1861.8" y1="51.9" x2="2359" y2="51.9"/>
<line class="st36" x1="2358.5" y1="548.6" x2="2358.5" y2="51.4"/>
<text transform="matrix(1 0 0 1 526.0992 325)" class="st37 st38">≈</text>
<text transform="matrix(1 0 0 1 1104.3152 325.0002)" class="st37 st38">+</text>
<text transform="matrix(1 0 0 1 1675.3152 325.0002)" class="st37 st38">+…+</text>
</svg>
