<?xml version="1.0" encoding="utf-8"?>
<!-- Generator: Adobe Illustrator 26.1.0, SVG Export Plug-In . SVG Version: 6.00 Build 0)  -->
<svg version="1.1" id="Layer_1" xmlns="http://www.w3.org/2000/svg" xmlns:xlink="http://www.w3.org/1999/xlink" x="0px" y="0px"
	 viewBox="0 0 2376 600" style="enable-background:new 0 0 2376 600;" xml:space="preserve">
<style type="text/css">
	.st0{fill:#FFFFFF;}
	.st1{fill:#DDDDFF;}
	.st2{fill:#C9CEFA;}
	.st3{fill:#B6BEF5;}
	.st4{fill:#A2AFF0;}
	.st5{fill:#8F9FEB;}
	.st6{fill:#7B90E7;}
	.st7{fill:#6781E2;}
	.st8{fill:#5471DD;}
	.st9{fill:#4062D8;}
	.st10{fill:#CB3C33;}
	.st11{fill:#D25048;}
	.st12{fill:#D8645E;}
	.st13{fill:#DE7873;}
	.st14{fill:#E58C88;}
	.st15{fill:#EBA19D;}
	.st16{fill:#F2B5B2;}
	.st17{fill:#F9C9C8;}
	.st18{fill:#FFDDDD;}
	.st19{fill:#DDFFDD;}
	.st20{fill:#C8F2C6;}
	.st21{fill:#B4E5AF;}
	.st22{fill:#9FD898;}
	.st23{fill:#8ACB81;}
	.st24{fill:#76BF6B;}
	.st25{fill:#61B254;}
	.st26{fill:#4DA53D;}
	.st27{fill:#389826;}
	.st28{fill:#9658B2;}
	.st29{fill:#A36DBC;}
	.st30{fill:#B082C5;}
	.st31{fill:#BD97CF;}
	.st32{fill:#CBABD9;}
	.st33{fill:#D8C0E2;}
	.st34{fill:#E5D5EC;}
	.st35{fill:#F2EAF5;}
	.st36{fill:none;stroke:#000000;stroke-miterlimit:2;}
	.st37{font-family:'ArialMT';}
	.st38{font-size:80px;}
</style>
<rect x="14.5" y="51.86" class="st0" width="496.28" height="496.28"/>
<rect x="594.76" y="51.86" class="st0" width="496.28" height="496.28"/>
<rect x="1169.01" y="51.86" class="st0" width="496.28" height="496.28"/>
<rect x="1862.26" y="51.86" class="st0" width="496.28" height="496.28"/>
<rect x="14.5" y="448.88" class="st1" width="99.26" height="99.26"/>
<rect x="14.5" y="349.63" class="st2" width="99.26" height="99.26"/>
<rect x="14.5" y="250.37" class="st3" width="99.26" height="99.26"/>
<rect x="14.5" y="151.11" class="st4" width="99.26" height="99.26"/>
<rect x="14.5" y="51.86" class="st5" width="99.26" height="99.26"/>
<rect x="113.76" y="448.88" class="st2" width="99.26" height="99.26"/>
<rect x="113.76" y="349.63" class="st3" width="99.26" height="99.26"/>
<rect x="113.76" y="250.37" class="st4" width="99.26" height="99.26"/>
<rect x="113.76" y="151.11" class="st5" width="99.26" height="99.26"/>
<rect x="113.76" y="51.86" class="st6" width="99.26" height="99.26"/>
<rect x="213.02" y="448.88" class="st3" width="99.26" height="99.26"/>
<rect x="213.02" y="349.63" class="st4" width="99.26" height="99.26"/>
<rect x="213.02" y="250.37" class="st5" width="99.26" height="99.26"/>
<rect x="213.02" y="151.11" class="st6" width="99.26" height="99.26"/>
<rect x="213.02" y="51.86" class="st7" width="99.26" height="99.26"/>
<rect x="312.27" y="448.88" class="st4" width="99.26" height="99.26"/>
<rect x="312.27" y="349.63" class="st5" width="99.26" height="99.26"/>
<rect x="312.27" y="250.37" class="st6" width="99.26" height="99.26"/>
<rect x="312.27" y="151.11" class="st7" width="99.26" height="99.26"/>
<rect x="312.27" y="51.86" class="st8" width="99.26" height="99.26"/>
<rect x="411.53" y="448.88" class="st5" width="99.26" height="99.26"/>
<rect x="411.53" y="349.63" class="st6" width="99.26" height="99.26"/>
<rect x="411.53" y="250.37" class="st7" width="99.26" height="99.26"/>
<rect x="411.53" y="151.11" class="st8" width="99.26" height="99.26"/>
<rect x="411.53" y="51.86" class="st9" width="99.26" height="99.26"/>
<rect x="594.76" y="448.88" class="st10" width="99.26" height="99.26"/>
<rect x="594.76" y="349.63" class="st11" width="99.26" height="99.26"/>
<rect x="594.76" y="250.37" class="st12" width="99.26" height="99.26"/>
<rect x="594.76" y="151.11" class="st13" width="99.26" height="99.26"/>
<rect x="594.76" y="51.86" class="st14" width="99.26" height="99.26"/>
<rect x="694.01" y="448.88" class="st11" width="99.26" height="99.26"/>
<rect x="694.01" y="349.63" class="st12" width="99.26" height="99.26"/>
<rect x="694.01" y="250.37" class="st13" width="99.26" height="99.26"/>
<rect x="694.01" y="151.11" class="st14" width="99.26" height="99.26"/>
<rect x="694.01" y="51.86" class="st15" width="99.26" height="99.26"/>
<rect x="793.27" y="448.88" class="st12" width="99.26" height="99.26"/>
<rect x="793.27" y="349.63" class="st13" width="99.26" height="99.26"/>
<rect x="793.27" y="250.37" class="st14" width="99.26" height="99.26"/>
<rect x="793.27" y="151.11" class="st15" width="99.26" height="99.26"/>
<rect x="793.27" y="51.86" class="st16" width="99.26" height="99.26"/>
<rect x="892.53" y="448.88" class="st13" width="99.26" height="99.26"/>
<rect x="892.53" y="349.63" class="st14" width="99.26" height="99.26"/>
<rect x="892.53" y="250.37" class="st15" width="99.26" height="99.26"/>
<rect x="892.53" y="151.11" class="st16" width="99.26" height="99.26"/>
<rect x="892.53" y="51.86" class="st17" width="99.26" height="99.26"/>
<rect x="991.78" y="448.88" class="st14" width="99.26" height="99.26"/>
<rect x="991.78" y="349.63" class="st15" width="99.26" height="99.26"/>
<rect x="991.78" y="250.37" class="st16" width="99.26" height="99.26"/>
<rect x="991.78" y="151.11" class="st17" width="99.26" height="99.26"/>
<rect x="991.78" y="51.86" class="st18" width="99.26" height="99.26"/>
<rect x="1169.01" y="448.88" class="st19" width="99.26" height="99.26"/>
<rect x="1169.01" y="349.63" class="st20" width="99.26" height="99.26"/>
<rect x="1169.01" y="250.37" class="st21" width="99.26" height="99.26"/>
<rect x="1169.01" y="151.11" class="st22" width="99.26" height="99.26"/>
<rect x="1169.01" y="51.86" class="st23" width="99.26" height="99.26"/>
<rect x="1268.27" y="448.88" class="st20" width="99.26" height="99.26"/>
<rect x="1268.27" y="349.63" class="st21" width="99.26" height="99.26"/>
<rect x="1268.27" y="250.37" class="st22" width="99.26" height="99.26"/>
<rect x="1268.27" y="151.11" class="st23" width="99.26" height="99.26"/>
<rect x="1268.27" y="51.86" class="st24" width="99.26" height="99.26"/>
<rect x="1367.52" y="448.88" class="st21" width="99.26" height="99.26"/>
<rect x="1367.52" y="349.63" class="st22" width="99.26" height="99.26"/>
<rect x="1367.52" y="250.37" class="st23" width="99.26" height="99.26"/>
<rect x="1367.52" y="151.11" class="st24" width="99.26" height="99.26"/>
<rect x="1367.52" y="51.86" class="st25" width="99.26" height="99.26"/>
<rect x="1466.78" y="448.88" class="st22" width="99.26" height="99.26"/>
<rect x="1466.78" y="349.63" class="st23" width="99.26" height="99.26"/>
<rect x="1466.78" y="250.37" class="st24" width="99.26" height="99.26"/>
<rect x="1466.78" y="151.11" class="st25" width="99.26" height="99.26"/>
<rect x="1466.78" y="51.86" class="st26" width="99.26" height="99.26"/>
<rect x="1566.03" y="448.88" class="st23" width="99.26" height="99.26"/>
<rect x="1566.03" y="349.63" class="st24" width="99.26" height="99.26"/>
<rect x="1566.03" y="250.37" class="st25" width="99.26" height="99.26"/>
<rect x="1566.03" y="151.11" class="st26" width="99.26" height="99.26"/>
<rect x="1566.03" y="51.86" class="st27" width="99.26" height="99.26"/>
<rect x="1862.26" y="448.88" class="st28" width="99.26" height="99.26"/>
<rect x="1862.26" y="349.63" class="st29" width="99.26" height="99.26"/>
<rect x="1862.26" y="250.37" class="st30" width="99.26" height="99.26"/>
<rect x="1862.26" y="151.11" class="st31" width="99.26" height="99.26"/>
<rect x="1862.26" y="51.86" class="st32" width="99.26" height="99.26"/>
<rect x="1961.52" y="448.88" class="st29" width="99.26" height="99.26"/>
<rect x="1961.52" y="349.63" class="st30" width="99.26" height="99.26"/>
<rect x="1961.52" y="250.37" class="st31" width="99.26" height="99.26"/>
<rect x="1961.52" y="151.11" class="st32" width="99.26" height="99.26"/>
<rect x="1961.52" y="51.86" class="st33" width="99.26" height="99.26"/>
<rect x="2060.77" y="448.88" class="st30" width="99.26" height="99.26"/>
<rect x="2060.77" y="349.63" class="st31" width="99.26" height="99.26"/>
<rect x="2060.77" y="250.37" class="st32" width="99.26" height="99.26"/>
<rect x="2060.77" y="151.11" class="st33" width="99.26" height="99.26"/>
<rect x="2060.77" y="51.86" class="st34" width="99.26" height="99.26"/>
<rect x="2160.03" y="448.88" class="st31" width="99.26" height="99.26"/>
<rect x="2160.03" y="349.63" class="st32" width="99.26" height="99.26"/>
<rect x="2160.03" y="250.37" class="st33" width="99.26" height="99.26"/>
<rect x="2160.03" y="151.11" class="st34" width="99.26" height="99.26"/>
<rect x="2160.03" y="51.86" class="st35" width="99.26" height="99.26"/>
<rect x="2259.29" y="448.88" class="st32" width="99.26" height="99.26"/>
<rect x="2259.29" y="349.63" class="st33" width="99.26" height="99.26"/>
<rect x="2259.29" y="250.37" class="st34" width="99.26" height="99.26"/>
<rect x="2259.29" y="151.11" class="st35" width="99.26" height="99.26"/>
<rect x="2259.29" y="51.86" class="st0" width="99.26" height="99.26"/>
<line class="st36" x1="14.07" y1="548.14" x2="511.22" y2="548.14"/>
<line class="st36" x1="14.5" y1="548.58" x2="14.5" y2="51.42"/>
<line class="st36" x1="14.07" y1="51.86" x2="511.22" y2="51.86"/>
<line class="st36" x1="510.79" y1="548.58" x2="510.79" y2="51.42"/>
<line class="st36" x1="594.32" y1="548.14" x2="1091.48" y2="548.14"/>
<line class="st36" x1="594.76" y1="548.58" x2="594.76" y2="51.42"/>
<line class="st36" x1="594.32" y1="51.86" x2="1091.48" y2="51.86"/>
<line class="st36" x1="1091.04" y1="548.58" x2="1091.04" y2="51.42"/>
<line class="st36" x1="1168.57" y1="548.14" x2="1665.73" y2="548.14"/>
<line class="st36" x1="1169.01" y1="548.58" x2="1169.01" y2="51.42"/>
<line class="st36" x1="1168.57" y1="51.86" x2="1665.73" y2="51.86"/>
<line class="st36" x1="1665.29" y1="548.58" x2="1665.29" y2="51.42"/>
<line class="st36" x1="1861.82" y1="548.14" x2="2358.98" y2="548.14"/>
<line class="st36" x1="1859.26" y1="548.58" x2="1859.26" y2="51.42"/>
<line class="st36" x1="1861.82" y1="51.86" x2="2358.98" y2="51.86"/>
<line class="st36" x1="2358.54" y1="548.58" x2="2358.54" y2="51.42"/>
<text transform="matrix(1 0 0 1 526.0992 325)" class="st37 st38">≈</text>
<text transform="matrix(1 0 0 1 1104.3152 325.0002)" class="st37 st38">+</text>
<text transform="matrix(1 0 0 1 1675.3152 325.0002)" class="st37 st38">+…+</text>
</svg>
